<?xml version="1.0" encoding="UTF-8"?>
<!DOCTYPE svg PUBLIC "-//W3C//DTD SVG 1.1//EN" "http://www.w3.org/Graphics/SVG/1.1/DTD/svg11.dtd">
<svg xmlns="http://www.w3.org/2000/svg" version="1.1" width="2048px" height="2048px" style="shape-rendering:geometricPrecision; text-rendering:geometricPrecision; image-rendering:optimizeQuality; fill-rule:evenodd; clip-rule:evenodd" xmlns:xlink="http://www.w3.org/1999/xlink">
<g><path style="opacity:0.999" fill="#264de4" d="M 120.5,-0.5 C 722.5,-0.5 1324.5,-0.5 1926.5,-0.5C 1872.01,614.182 1817.35,1228.85 1762.5,1843.5C 1516.9,1910.9 1271.56,1978.9 1026.5,2047.5C 1023.83,2047.5 1021.17,2047.5 1018.5,2047.5C 774.1,1978.93 529.434,1910.93 284.5,1843.5C 229.533,1228.86 174.866,614.195 120.5,-0.5 Z"/></g>
<g><path style="opacity:1" fill="#2965f1" d="M 1023.5,1656.5 C 1023.5,1656.17 1023.5,1655.83 1023.5,1655.5C 1177.82,1613.38 1331.99,1570.71 1486,1527.5C 1520.06,1145.15 1554.22,762.82 1588.5,380.5C 1589.45,379.081 1589.78,377.415 1589.5,375.5C 1400.83,375.5 1212.17,375.5 1023.5,375.5C 1023.5,300.5 1023.5,225.5 1023.5,150.5C 1269.5,150.5 1515.5,150.5 1761.5,150.5C 1714.35,675.462 1667.69,1200.46 1621.5,1725.5C 1422.36,1780.03 1223.36,1835.03 1024.5,1890.5C 1023.5,1812.5 1023.17,1734.5 1023.5,1656.5 Z"/></g>
<g><path style="opacity:1" fill="#517cee" d="M 456.5,376.5 C 645.333,375.5 834.333,375.167 1023.5,375.5C 1212.17,375.5 1400.83,375.5 1589.5,375.5C 1589.78,377.415 1589.45,379.081 1588.5,380.5C 1588.5,379.167 1588.5,377.833 1588.5,376.5C 1399.83,376.5 1211.17,376.5 1022.5,376.5C 833.833,376.5 645.167,376.5 456.5,376.5 Z"/></g>
<g><path style="opacity:1" fill="#eaeaea" d="M 456.5,376.5 C 645.167,376.5 833.833,376.5 1022.5,376.5C 1022.5,451.5 1022.5,526.5 1022.5,601.5C 840.833,601.5 659.167,601.5 477.5,601.5C 477.737,600.209 477.404,599.209 476.5,598.5C 470.133,524.468 463.467,450.468 456.5,376.5 Z"/></g>
<g><path style="opacity:1" fill="#fefefe" d="M 1022.5,376.5 C 1211.17,376.5 1399.83,376.5 1588.5,376.5C 1588.5,377.833 1588.5,379.167 1588.5,380.5C 1554.22,762.82 1520.06,1145.15 1486,1527.5C 1331.99,1570.71 1177.82,1613.38 1023.5,1655.5C 1022.83,1616.67 1022.5,1577.67 1022.5,1538.5C 1022.51,1498.96 1023.17,1459.62 1024.5,1420.5C 1107.74,1397.86 1191.07,1375.52 1274.5,1353.5C 1283.46,1256.53 1292.13,1159.53 1300.5,1062.5C 1301.4,1061.79 1301.74,1060.79 1301.5,1059.5C 1208.5,1059.5 1115.5,1059.5 1022.5,1059.5C 1022.5,984.5 1022.5,909.5 1022.5,834.5C 1122,834.833 1221.33,834.499 1320.5,833.5C 1327.29,759.157 1333.96,684.823 1340.5,610.5C 1341.48,607.713 1341.81,604.713 1341.5,601.5C 1235.33,601.167 1129.33,601.501 1023.5,602.5C 1023.17,602.5 1022.83,602.5 1022.5,602.5C 1022.5,602.167 1022.5,601.833 1022.5,601.5C 1022.5,526.5 1022.5,451.5 1022.5,376.5 Z"/></g>
<g><path style="opacity:1" fill="#d0d5e9" d="M 476.5,598.5 C 477.404,599.209 477.737,600.209 477.5,601.5C 659.167,601.5 840.833,601.5 1022.5,601.5C 1022.5,601.833 1022.5,602.167 1022.5,602.5C 840.5,602.5 658.5,602.5 476.5,602.5C 476.5,601.167 476.5,599.833 476.5,598.5 Z"/></g>
<g><path style="opacity:1" fill="#e1e9fc" d="M 1023.5,602.5 C 1129.33,601.501 1235.33,601.167 1341.5,601.5C 1341.81,604.713 1341.48,607.713 1340.5,610.5C 1340.5,607.833 1340.5,605.167 1340.5,602.5C 1234.83,602.5 1129.17,602.5 1023.5,602.5 Z"/></g>
<g><path style="opacity:1" fill="#2965f1" d="M 1023.5,602.5 C 1129.17,602.5 1234.83,602.5 1340.5,602.5C 1340.5,605.167 1340.5,607.833 1340.5,610.5C 1333.96,684.823 1327.29,759.157 1320.5,833.5C 1221.5,833.5 1122.5,833.5 1023.5,833.5C 1023.5,756.5 1023.5,679.5 1023.5,602.5 Z"/></g>
<g><path style="opacity:1" fill="#eaeaeb" d="M 1023.5,833.5 C 1122.5,833.5 1221.5,833.5 1320.5,833.5C 1221.33,834.499 1122,834.833 1022.5,834.5C 1022.5,909.5 1022.5,984.5 1022.5,1059.5C 854.167,1059.5 685.833,1059.5 517.5,1059.5C 510.773,984.171 504.106,908.838 497.5,833.5C 672.833,833.5 848.167,833.5 1023.5,833.5 Z"/></g>
<g><path style="opacity:1" fill="#7b9af0" d="M 517.5,1059.5 C 685.833,1059.5 854.167,1059.5 1022.5,1059.5C 1115.5,1059.5 1208.5,1059.5 1301.5,1059.5C 1301.74,1060.79 1301.4,1061.79 1300.5,1062.5C 1208.51,1060.5 1116.17,1059.84 1023.5,1060.5C 854.666,1060.83 685.999,1060.5 517.5,1059.5 Z"/></g>
<g><path style="opacity:1" fill="#2965f1" d="M 1023.5,1060.5 C 1116.17,1059.84 1208.51,1060.5 1300.5,1062.5C 1292.13,1159.53 1283.46,1256.53 1274.5,1353.5C 1191.07,1375.52 1107.74,1397.86 1024.5,1420.5C 1024.17,1420.5 1023.83,1420.5 1023.5,1420.5C 1023.5,1300.5 1023.5,1180.5 1023.5,1060.5 Z"/></g>
<g><path style="opacity:1" fill="#8fa1e7" d="M 754.5,1173.5 C 679.167,1173.5 603.833,1173.5 528.5,1173.5C 528.5,1174.83 528.5,1176.17 528.5,1177.5C 527.549,1176.08 527.216,1174.41 527.5,1172.5C 603.335,1172.17 679.002,1172.5 754.5,1173.5 Z"/></g>
<g><path style="opacity:1" fill="#eaeaea" d="M 754.5,1173.5 C 760.601,1233.29 765.935,1293.29 770.5,1353.5C 851.523,1375.17 932.523,1397.01 1013.5,1419C 1016.76,1420.04 1020.09,1420.54 1023.5,1420.5C 1023.83,1420.5 1024.17,1420.5 1024.5,1420.5C 1023.17,1459.62 1022.51,1498.96 1022.5,1538.5C 1022.5,1577.67 1022.83,1616.67 1023.5,1655.5C 1023.5,1655.83 1023.5,1656.17 1023.5,1656.5C 868.872,1613.71 714.205,1571.04 559.5,1528.5C 548.866,1411.53 538.533,1294.53 528.5,1177.5C 528.5,1176.17 528.5,1174.83 528.5,1173.5C 603.833,1173.5 679.167,1173.5 754.5,1173.5 Z"/></g>
</svg>
