<?xml version="1.0" encoding="UTF-8"?>
<!DOCTYPE svg PUBLIC "-//W3C//DTD SVG 1.1//EN" "http://www.w3.org/Graphics/SVG/1.1/DTD/svg11.dtd">
<svg xmlns="http://www.w3.org/2000/svg" version="1.1" width="1150px" height="1000px" style="shape-rendering:geometricPrecision; text-rendering:geometricPrecision; image-rendering:optimizeQuality; fill-rule:evenodd; clip-rule:evenodd" xmlns:xlink="http://www.w3.org/1999/xlink">
<g><path style="opacity:0.991" fill="#61dafb" d="M 326.5,-0.5 C 343.167,-0.5 359.833,-0.5 376.5,-0.5C 410.38,7.09946 442.047,20.2661 471.5,39C 508.576,62.8913 542.909,90.3913 574.5,121.5C 610.711,85.5831 650.711,54.7498 694.5,29C 719.17,15.2821 745.17,5.44877 772.5,-0.5C 789.167,-0.5 805.833,-0.5 822.5,-0.5C 862.823,9.31009 890.657,33.6434 906,72.5C 919.444,111.048 924.444,150.714 921,191.5C 918.441,231.685 911.941,271.185 901.5,310C 948.6,323.254 993.6,341.587 1036.5,365C 1062.24,379.393 1085.07,397.56 1105,419.5C 1121.48,438.126 1131.81,459.793 1136,484.5C 1139.26,520.709 1128.93,552.376 1105,579.5C 1074.31,611.608 1038.48,636.441 997.5,654C 966.321,667.838 934.321,679.505 901.5,689C 916.415,743.152 922.915,798.319 921,854.5C 919.884,889.31 910.551,921.643 893,951.5C 875.811,976.839 852.311,992.839 822.5,999.5C 805.833,999.5 789.167,999.5 772.5,999.5C 738.62,991.901 706.953,978.734 677.5,960C 640.424,936.109 606.091,908.609 574.5,877.5C 538.289,913.417 498.289,944.25 454.5,970C 429.83,983.718 403.83,993.551 376.5,999.5C 359.833,999.5 343.167,999.5 326.5,999.5C 286.177,989.69 258.343,965.357 243,926.5C 229.556,887.952 224.556,848.286 228,807.5C 230.559,767.316 237.059,727.816 247.5,689C 200.446,675.758 155.446,657.425 112.5,634C 86.786,619.637 63.9527,601.471 44,579.5C 18.4579,550.533 8.45792,516.866 14,478.5C 21.1339,450.718 34.9672,426.884 55.5,407C 84.0966,381.35 116.097,360.683 151.5,345C 182.877,331.542 214.877,319.875 247.5,310C 232.585,255.847 226.085,200.681 228,144.5C 229.2,111.026 237.867,79.6924 254,50.5C 271.174,23.4822 295.341,6.48222 326.5,-0.5 Z M 342.5,47.5 C 363.741,47.2482 384.075,51.4149 403.5,60C 434.477,74.1435 463.144,91.8102 489.5,113C 507.062,126.889 523.729,141.889 539.5,158C 505.701,194.953 474.368,233.786 445.5,274.5C 395.351,279.581 345.684,287.581 296.5,298.5C 282.049,248.509 275.882,197.509 278,145.5C 279.02,123.063 284.353,101.73 294,81.5C 304.59,62.0571 320.757,50.7238 342.5,47.5 Z M 790.5,47.5 C 819.301,45.3141 840.801,56.6475 855,81.5C 864.647,101.73 869.98,123.063 871,145.5C 873.117,197.51 866.951,248.51 852.5,298.5C 803.324,287.522 753.657,279.522 703.5,274.5C 674.632,233.786 643.299,194.953 609.5,158C 639.091,128.399 671.425,102.399 706.5,80C 732.457,63.5207 760.457,52.6873 790.5,47.5 Z M 573.5,194.5 C 576.731,196.22 579.564,198.553 582,201.5C 601.588,223.751 620.422,246.584 638.5,270C 595.833,269.333 553.167,269.333 510.5,270C 530.674,244.156 551.674,218.989 573.5,194.5 Z M 527.5,319.5 C 558.835,319.333 590.168,319.5 621.5,320C 639.881,320.503 658.215,321.669 676.5,323.5C 713.124,377.37 745.958,433.703 775,492.5C 776.608,495.351 777.274,498.351 777,501.5C 747.808,562.247 714.308,620.247 676.5,675.5C 642.577,678.598 608.577,679.931 574.5,679.5C 540.424,679.931 506.424,678.598 472.5,675.5C 435.876,621.63 403.042,565.297 374,506.5C 372.392,503.649 371.726,500.649 372,497.5C 401.192,436.753 434.692,378.753 472.5,323.5C 490.964,321.847 509.297,320.514 527.5,319.5 Z M 404.5,329.5 C 405.873,329.343 407.207,329.51 408.5,330C 385.527,365.433 364.193,401.933 344.5,439.5C 331.165,409.334 319.499,378.5 309.5,347C 341.057,339.854 372.724,334.02 404.5,329.5 Z M 740.5,330.5 C 773.725,333.371 806.725,338.871 839.5,347C 829.501,378.5 817.835,409.334 804.5,439.5C 784.905,401.952 763.572,365.619 740.5,330.5 Z M 260.5,358.5 C 275.862,406.572 294.195,453.572 315.5,499.5C 294.093,545.215 275.927,592.215 261,640.5C 211.169,627.118 164.335,606.951 120.5,580C 104.102,568.936 89.602,555.769 77,540.5C 58.4364,516.018 57.1031,490.684 73,464.5C 90.1907,441.482 111.357,422.982 136.5,409C 176.002,387.407 217.335,370.574 260.5,358.5 Z M 887.5,358.5 C 938.777,371.976 986.777,392.81 1031.5,421C 1046.61,431.774 1060.11,444.274 1072,458.5C 1081.07,470.643 1086.23,484.31 1087.5,499.5C 1086.23,514.69 1081.07,528.357 1072,540.5C 1053.11,562.387 1030.94,580.22 1005.5,594C 967.905,613.55 928.738,629.05 888,640.5C 873.073,592.215 854.907,545.215 833.5,499.5C 855.048,453.855 873.048,406.855 887.5,358.5 Z M 804.5,558.5 C 817.62,589.015 829.287,620.181 839.5,652C 806.863,659.939 773.863,665.606 740.5,669C 763.739,633.366 785.072,596.533 804.5,558.5 Z M 343.5,559.5 C 355.865,580.545 368.032,601.879 380,623.5C 389.125,638.919 398.625,654.086 408.5,669C 375.189,665.406 342.189,659.739 309.5,652C 319.75,620.748 331.083,589.915 343.5,559.5 Z M 295.5,700.5 C 345.05,711.198 395.05,719.198 445.5,724.5C 474.368,765.214 505.701,804.047 539.5,841C 501.657,879.746 458.657,911.413 410.5,936C 393.923,943.637 376.59,948.637 358.5,951C 327.661,953.669 305.494,941.169 292,913.5C 283.77,894.351 279.103,874.351 278,853.5C 276.252,818.89 278.585,784.557 285,750.5C 288.183,733.75 291.683,717.083 295.5,700.5 Z M 851.5,700.5 C 852.586,700.62 853.253,701.287 853.5,702.5C 867.124,751.947 872.957,802.28 871,853.5C 869.897,874.351 865.23,894.351 857,913.5C 843.506,941.169 821.339,953.669 790.5,951C 760.255,946.251 732.255,935.584 706.5,919C 671.425,896.601 639.091,870.601 609.5,841C 643.299,804.047 674.632,765.214 703.5,724.5C 732.226,721.159 760.892,717.326 789.5,713C 810.464,709.641 831.131,705.474 851.5,700.5 Z M 510.5,729.5 C 553.001,729.662 595.667,729.495 638.5,729C 618.462,755.228 597.129,780.395 574.5,804.5C 564.809,794.976 555.642,784.976 547,774.5C 534.814,759.43 522.648,744.43 510.5,729.5 Z"/></g>
<g><path style="opacity:0.995" fill="#60dafb" d="M 568.5,398.5 C 615.051,398.676 648.218,419.676 668,461.5C 684.064,510.63 671.898,551.13 631.5,583C 589.479,607.775 548.812,605.775 509.5,577C 475.235,544.687 465.735,506.187 481,461.5C 498.332,423.993 527.499,402.993 568.5,398.5 Z"/></g>
</svg>
